<?xml version="1.0" encoding="UTF-8" standalone="no"?>
<svg width="35px" height="35px" viewBox="0 0 35 35" version="1.1" xmlns="http://www.w3.org/2000/svg" xmlns:xlink="http://www.w3.org/1999/xlink">
    <!-- Generator: Sketch 41.1 (35376) - http://www.bohemiancoding.com/sketch -->
    <title>icon_placehoder</title>
    <desc>Created with Sketch.</desc>
    <defs></defs>
    <g id="Page-1" stroke="none" stroke-width="1" fill="none" fill-rule="evenodd">
        <g id="icon_placehoder">
            <g id="link">
                <rect id="Rectangle" fill="#EEEEEE" x="0" y="0" width="35" height="35" rx="5"></rect>
                <g id="Group" opacity="0.599999964" transform="translate(8.000000, 8.000000)" fill="#444444">
                    <path d="M17.5294118,1.29411765 C15.8823529,-0.352941176 13.1764706,-0.352941176 11.5294118,1.29411765 L6.35294118,6.35294118 C4.70588235,8.11764706 4.70588235,10.7058824 6.35294118,12.4705882 C6.47058824,12.5882353 6.70588235,12.7058824 6.82352941,12.8235294 L8.58823529,11.0588235 C8.47058824,10.9411765 8.23529412,10.8235294 8.11764706,10.7058824 C7.41176471,10 7.41176471,8.82352941 8.11764706,8.11764706 L13.2941176,2.94117647 C14,2.23529412 15.1764706,2.23529412 15.8823529,2.94117647 C16.5882353,3.64705882 16.5882353,4.82352941 15.8823529,5.52941176 L14.3529412,7.05882353 C14.8235294,8 14.9411765,9.05882353 14.8235294,10 L17.5294118,7.29411765 C19.2941176,5.64705882 19.2941176,2.94117647 17.5294118,1.29411765 L17.5294118,1.29411765 Z" id="Shape"></path>
                    <path d="M12,6 L10.2352941,7.76470588 C10.2352941,7.76470588 10.5882353,8 10.7058824,8.11764706 C11.4117647,8.82352941 11.4117647,10 10.7058824,10.7058824 L5.52941176,15.8823529 C4.82352941,16.5882353 3.64705882,16.5882353 2.94117647,15.8823529 C2.23529412,15.1764706 2.23529412,14 2.94117647,13.2941176 L4.47058824,11.7647059 C4,10.8235294 4.35294118,10.2352941 4,8.82352941 L1.29411765,11.5294118 C-0.352941176,13.1764706 -0.352941176,15.8823529 1.29411765,17.5294118 C2.94117647,19.1764706 5.64705882,19.1764706 7.29411765,17.5294118 L12.4705882,12.3529412 C14.1176471,10.7058824 14.1176471,8 12.4705882,6.35294118 C12.2352941,6.23529412 12,6 12,6 L12,6 Z" id="Shape"></path>
                </g>
            </g>
        </g>
    </g>
</svg>